<?xml version="1.0" standalone="no"?>
<!DOCTYPE svg PUBLIC "-//W3C//DTD SVG 20010904//EN"
 "http://www.w3.org/TR/2001/REC-SVG-20010904/DTD/svg10.dtd">
<svg version="1.0" xmlns="http://www.w3.org/2000/svg"
 width="225.000000pt" height="225.000000pt" viewBox="0 0 225.000000 225.000000"
 preserveAspectRatio="xMidYMid meet">

<g transform="translate(0.000000,225.000000) scale(0.100000,-0.100000)"
fill="#000000" stroke="none">
<path d="M947 1863 c-4 -3 -7 -29 -7 -58 0 -42 -27 -195 -46 -257 -3 -10 2
-18 13 -21 10 -2 -4 -7 -32 -12 -96 -15 -157 -63 -198 -154 -16 -36 -19 -58
-14 -117 5 -70 5 -72 -19 -78 -31 -8 -91 -61 -110 -97 -19 -38 -18 -119 4
-177 l19 -48 -42 -17 c-69 -29 -98 -67 -103 -134 -3 -49 0 -64 20 -93 58 -85
204 -116 411 -87 75 11 183 17 280 17 147 0 157 1 157 19 0 10 7 25 17 32 15
13 15 12 3 -7 -25 -41 -10 -48 166 -77 243 -40 292 -35 366 31 122 109 97 255
-54 322 -27 11 -48 22 -48 24 0 2 7 18 16 35 48 97 -29 244 -139 268 -21 4
-26 10 -22 22 4 9 9 36 11 61 10 85 -54 152 -159 166 -45 6 -48 8 -42 32 15
61 16 81 5 121 -20 75 -66 113 -251 206 -163 83 -188 92 -202 78z m113 -103
c21 -11 41 -24 45 -29 3 -6 -13 1 -37 14 -23 13 -45 22 -50 19 -4 -3 -8 0 -8
5 0 15 5 14 50 -9z m-53 -42 c-3 -8 -6 -5 -6 6 -1 11 2 17 5 13 3 -3 4 -12 1
-19z m-10 -50 c-3 -7 -5 -2 -5 12 0 14 2 19 5 13 2 -7 2 -19 0 -25z m153 -8
c6 -11 8 -20 6 -20 -3 0 -10 9 -16 20 -6 11 -8 20 -6 20 3 0 10 -9 16 -20z
m-163 -42 c-3 -7 -5 -2 -5 12 0 14 2 19 5 13 2 -7 2 -19 0 -25z m135 5 c19
-17 23 -38 9 -47 -5 -4 -7 2 -4 12 5 22 -21 46 -42 38 -9 -3 -13 -2 -10 4 9
15 26 12 47 -7z m-62 -16 c0 -2 -10 -12 -22 -23 l-23 -19 19 23 c18 21 26 27
26 19z m-88 -39 c-8 -8 -9 -4 -5 13 4 13 8 18 11 10 2 -7 -1 -18 -6 -23z m-31
-16 c-7 -2 -18 1 -23 6 -8 8 -4 9 13 5 13 -4 18 -8 10 -11z m69 13 c0 -7 -57
-35 -72 -35 -7 0 5 9 27 19 48 23 45 22 45 16z m110 -8 c0 -2 -12 -14 -27 -28
l-28 -24 24 28 c23 25 31 32 31 24z m-104 -82 c-11 -8 -25 -15 -30 -15 -6 1 0
7 14 15 32 19 40 18 16 0z m-49 -21 c-3 -3 -12 -4 -19 -1 -8 3 -5 6 6 6 11 1
17 -2 13 -5z m270 -16 c-3 -8 -6 -5 -6 6 -1 11 2 17 5 13 3 -3 4 -12 1 -19z
m-319 5 c-10 -2 -28 -2 -40 0 -13 2 -5 4 17 4 22 1 32 -1 23 -4z m319 -95 c-3
-8 -6 -5 -6 6 -1 11 2 17 5 13 3 -3 4 -12 1 -19z m-500 -40 c-3 -8 -6 -5 -6 6
-1 11 2 17 5 13 3 -3 4 -12 1 -19z m473 8 c0 -2 -8 -10 -17 -17 -16 -13 -17
-12 -4 4 13 16 21 21 21 13z m-483 -58 c-3 -7 -5 -2 -5 12 0 14 2 19 5 13 2
-7 2 -19 0 -25z m93 12 c-8 -5 -19 -10 -25 -10 -5 0 -3 5 5 10 8 5 20 10 25
10 6 0 3 -5 -5 -10z m320 -5 c0 -6 -56 -35 -67 -35 -4 1 8 9 27 20 39 22 40
22 40 15z m-380 -30 c-13 -14 -26 -23 -28 -20 -4 4 38 44 47 45 3 0 -6 -11
-19 -25z m220 0 c13 -14 21 -25 18 -25 -2 0 -15 11 -28 25 -13 14 -21 25 -18
25 2 0 15 -11 28 -25z m278 11 c-10 -7 -15 -15 -13 -18 3 -3 -1 -11 -9 -17
-11 -10 -14 -9 -12 2 3 20 26 47 40 47 6 0 3 -7 -6 -14z m-208 -26 c-8 -5 -22
-9 -30 -9 -10 0 -8 3 5 9 27 12 43 12 25 0z m378 -26 c39 -27 62 -86 62 -159
0 -104 -45 -175 -111 -175 -83 0 -140 128 -108 243 15 57 64 107 103 107 17 0
42 -7 54 -16z m-504 -22 c54 -48 72 -171 37 -248 -21 -47 -64 -84 -96 -84 -58
0 -114 88 -115 178 0 137 96 222 174 154z m231 8 c-3 -5 -12 -10 -18 -10 -7 0
-6 4 3 10 19 12 23 12 15 0z m-98 -82 c-3 -8 -6 -5 -6 6 -1 11 2 17 5 13 3 -3
4 -12 1 -19z m130 -10 c-3 -7 -5 -2 -5 12 0 14 2 19 5 13 2 -7 2 -19 0 -25z
m-507 7 c0 -9 -6 -12 -15 -9 -8 4 -27 -7 -45 -24 -16 -17 -30 -27 -30 -23 0 9
39 45 65 59 26 15 25 15 25 -3z m-13 -102 c-2 -16 -4 -3 -4 27 0 30 2 43 4 28
2 -16 2 -40 0 -55z m400 -5 c-2 -18 -4 -6 -4 27 0 33 2 48 4 33 2 -15 2 -42 0
-60z m110 35 c-3 -10 -5 -4 -5 12 0 17 2 24 5 18 2 -7 2 -21 0 -30z m-590 -50
c-3 -10 -5 -2 -5 17 0 19 2 27 5 18 2 -10 2 -26 0 -35z m591 -34 c-7 -5 -17
-9 -23 -9 -5 1 -2 5 8 11 9 5 18 20 18 32 2 21 2 21 6 -2 3 -13 -1 -27 -9 -32z
m-494 -14 c5 -22 4 -26 -4 -15 -5 8 -10 24 -10 34 0 26 6 18 14 -19z m373 3
c-3 -8 -6 -5 -6 6 -1 11 2 17 5 13 3 -3 4 -12 1 -19z m80 -4 c-3 -3 -12 -4
-19 -1 -8 3 -5 6 6 6 11 1 17 -2 13 -5z m-483 -45 l31 -2 -30 -4 c-29 -5 -56
16 -54 41 0 6 5 1 11 -11 8 -16 21 -23 42 -24z m413 25 c-3 -3 -12 -4 -19 -1
-8 3 -5 6 6 6 11 1 17 -2 13 -5z m164 -41 c11 -15 11 -16 0 -6 -7 6 -21 9 -30
6 -14 -4 -14 -3 -1 6 8 6 16 11 16 11 1 0 8 -8 15 -17z m296 -54 c-4 -21 -4
-21 -6 5 l-1 28 -35 -31 c-20 -17 -41 -31 -48 -31 -7 0 2 8 18 18 17 11 36 26
44 36 18 21 34 7 28 -25z m-410 25 c-3 -3 -12 -4 -19 -1 -8 3 -5 6 6 6 11 1
17 -2 13 -5z m-54 -11 c-7 -2 -19 -2 -25 0 -7 3 -2 5 12 5 14 0 19 -2 13 -5z
m-43 -7 c0 -2 -9 -6 -20 -9 -11 -3 -18 -1 -14 4 5 9 34 13 34 5z m-249 -23
c12 -16 12 -17 -1 -6 -8 6 -26 13 -40 16 l-25 4 26 2 c15 0 33 -7 40 -16z
m-88 0 c-7 -2 -21 -2 -30 0 -10 3 -4 5 12 5 17 0 24 -2 18 -5z m277 -8 c-7 -8
-17 -15 -23 -15 -6 0 -2 7 9 15 25 19 30 19 14 0z m-343 -1 c-3 -3 -12 -4 -19
-1 -8 3 -5 6 6 6 11 1 17 -2 13 -5z m750 -10 c-3 -3 -12 -4 -19 -1 -8 3 -5 6
6 6 11 1 17 -2 13 -5z m50 0 c-3 -3 -12 -4 -19 -1 -8 3 -5 6 6 6 11 1 17 -2
13 -5z m-534 -21 c-7 -2 -21 -2 -30 0 -10 3 -4 5 12 5 17 0 24 -2 18 -5z m752
-23 c10 -11 16 -20 13 -20 -3 0 -13 9 -23 20 -10 11 -16 20 -13 20 3 0 13 -9
23 -20z m-55 5 c0 -2 -13 -11 -30 -20 -38 -19 -40 -11 -2 9 31 17 32 18 32 11z
m-1103 -57 c-3 -8 -6 -5 -6 6 -1 11 2 17 5 13 3 -3 4 -12 1 -19z m698 -18
c-11 -5 -27 -9 -35 -9 -9 0 -8 4 5 9 11 5 27 9 35 9 9 0 8 -4 -5 -9z m255 0
c-8 -5 -22 -9 -30 -9 -10 0 -8 3 5 9 27 12 43 12 25 0z m-343 -26 c-3 -3 -12
-4 -19 -1 -8 3 -5 6 6 6 11 1 17 -2 13 -5z m-40 -10 c-3 -3 -12 -4 -19 -1 -8
3 -5 6 6 6 11 1 17 -2 13 -5z m-40 -10 c-3 -3 -12 -4 -19 -1 -8 3 -5 6 6 6 11
1 17 -2 13 -5z m-462 -22 c-3 -3 -11 0 -18 7 -9 10 -8 11 6 5 10 -3 15 -9 12
-12z m422 12 c-3 -3 -12 -4 -19 -1 -8 3 -5 6 6 6 11 1 17 -2 13 -5z m-44 -11
c-7 -2 -19 -2 -25 0 -7 3 -2 5 12 5 14 0 19 -2 13 -5z m-336 -9 c-3 -3 -12 -4
-19 -1 -8 3 -5 6 6 6 11 1 17 -2 13 -5z m286 -1 c-7 -2 -21 -2 -30 0 -10 3 -4
5 12 5 17 0 24 -2 18 -5z m312 -3 c-11 -5 -27 -9 -35 -9 -9 0 -8 4 5 9 11 5
27 9 35 9 9 0 8 -4 -5 -9z m198 3 c-7 -2 -21 -2 -30 0 -10 3 -4 5 12 5 17 0
24 -2 18 -5z m-700 -10 c-13 -2 -35 -2 -50 0 -16 2 -5 4 22 4 28 0 40 -2 28
-4z m110 0 c-13 -2 -33 -2 -45 0 -13 2 -3 4 22 4 25 0 35 -2 23 -4z m650 0
c-7 -2 -19 -2 -25 0 -7 3 -2 5 12 5 14 0 19 -2 13 -5z m-346 -19 c-3 -3 -12
-4 -19 -1 -8 3 -5 6 6 6 11 1 17 -2 13 -5z"/>
<path d="M1336 1074 c-36 -35 -7 -104 42 -104 27 0 62 33 62 58 0 52 -68 82
-104 46z"/>
<path d="M821 1053 c-35 -43 -7 -93 51 -93 35 0 62 37 52 74 -12 51 -70 61
-103 19z"/>
</g>
</svg>
